# xmcd
#
# Track frame offsets:
#	150
#	41284
#	69615
#	92246
#	104734
#	119404
#
# Disc length: 1826 seconds
#
# Revision: 0
# Processed by: cddbd v1.5.2PL0 Copyright (c) Steve Scherf et al.
# Submitted via: EZCDAudioConverter 7.0.4.1
#
DISCID=51072006
DTITLE=Cream - Goodbye
DYEAR=2014
DGENRE=Blues
TTITLE0=I'm So Glad
TTITLE1=Politician
TTITLE2=Sitting on Top of the World
TTITLE3=Badge
TTITLE4=Doing That Scrapyard Thing
TTITLE5=What a Bringdown
EXTD=
EXTT0=
EXTT1=
EXTT2=
EXTT3=
EXTT4=
EXTT5=
PLAYORDER=
